<?xml version="1.0" standalone="no"?><!DOCTYPE svg PUBLIC "-//W3C//DTD SVG 1.1//EN" "http://www.w3.org/Graphics/SVG/1.1/DTD/svg11.dtd"><svg t="1719284040460" class="icon" viewBox="0 0 1104 1024" version="1.1" xmlns="http://www.w3.org/2000/svg" p-id="69894" data-spm-anchor-id="a313x.search_index.0.i41.17343a81fu9gYN" xmlns:xlink="http://www.w3.org/1999/xlink" width="215.625" height="200"><path d="M45.068637 859.630173h195.557324v132.821781H45.068637z" fill="#83E9FD" p-id="69895" data-spm-anchor-id="a313x.search_index.0.i46.17343a81fu9gYN" class=""></path><path d="M45.068637 660.872976h195.557324v132.817274H45.068637z" fill="#78C3FC" p-id="69896" data-spm-anchor-id="a313x.search_index.0.i45.17343a81fu9gYN" class=""></path><path d="M45.068637 462.102258h195.557324v132.830795H45.068637z" fill="#71AAFA" p-id="69897" data-spm-anchor-id="a313x.search_index.0.i44.17343a81fu9gYN" class=""></path><path d="M45.068637 263.345061h195.557324v132.826288H45.068637z" fill="#6B93F8" p-id="69898" data-spm-anchor-id="a313x.search_index.0.i40.17343a81fu9gYN" class=""></path><path d="M45.068637 64.583357h195.557324V197.400631H45.068637z" fill="#6379F6" p-id="69899" data-spm-anchor-id="a313x.search_index.0.i37.17343a81fu9gYN" class=""></path><path d="M313.393783 859.630173h195.557324v132.821781H313.393783z" fill="#B32074" p-id="69900" data-spm-anchor-id="a313x.search_index.0.i47.17343a81fu9gYN" class=""></path><path d="M313.393783 660.872976h195.557324v132.817274H313.393783z" fill="#8F2F9E" p-id="69901" data-spm-anchor-id="a313x.search_index.0.i48.17343a81fu9gYN" class=""></path><path d="M581.709915 859.630173h195.56183v132.821781h-195.56183z" fill="#E50C2E" p-id="69902" data-spm-anchor-id="a313x.search_index.0.i51.17343a81fu9gYN" class=""></path><path d="M581.709915 660.872976h195.56183v132.817274h-195.56183z" fill="#D81244" p-id="69903" data-spm-anchor-id="a313x.search_index.0.i50.17343a81fu9gYN" class=""></path><path d="M581.709915 462.102258h195.56183v132.830795h-195.56183z" fill="#C8185B" p-id="69904" data-spm-anchor-id="a313x.search_index.0.i49.17343a81fu9gYN" class=""></path><path d="M850.030553 859.630173H1045.592384v132.821781h-195.561831z" fill="#F5C04C" p-id="69905" data-spm-anchor-id="a313x.search_index.0.i52.17343a81fu9gYN" class=""></path><path d="M850.030553 660.872976H1045.592384v132.817274h-195.561831z" fill="#F29E4A" p-id="69906" data-spm-anchor-id="a313x.search_index.0.i55.17343a81fu9gYN" class=""></path><path d="M850.030553 462.102258H1045.592384v132.830795h-195.561831z" fill="#F18B4B" p-id="69907" data-spm-anchor-id="a313x.search_index.0.i54.17343a81fu9gYN" class=""></path><path d="M850.030553 263.345061H1045.592384v132.826288h-195.561831z" fill="#ED5349" p-id="69908" data-spm-anchor-id="a313x.search_index.0.i53.17343a81fu9gYN" class=""></path></svg>